<?xml version="1.0" encoding="UTF-8" standalone="no"?>
<!-- Created with Inkscape (http://www.inkscape.org/) -->

<svg
   width="83.884659mm"
   height="72.213318mm"
   viewBox="0 0 83.884659 72.213318"
   version="1.1"
   id="svg1"
   inkscape:version="1.3.2 (1:1.3.2+202311252150+091e20ef0f)"
   sodipodi:docname="Graph.svg"
   inkscape:export-filename="Graph.png"
   inkscape:export-xdpi="96"
   inkscape:export-ydpi="96"
   xmlns:inkscape="http://www.inkscape.org/namespaces/inkscape"
   xmlns:sodipodi="http://sodipodi.sourceforge.net/DTD/sodipodi-0.dtd"
   xmlns="http://www.w3.org/2000/svg"
   xmlns:svg="http://www.w3.org/2000/svg">
  <sodipodi:namedview
     id="namedview1"
     pagecolor="#ffffff"
     bordercolor="#666666"
     borderopacity="1.0"
     inkscape:showpageshadow="2"
     inkscape:pageopacity="0.0"
     inkscape:pagecheckerboard="0"
     inkscape:deskcolor="#d1d1d1"
     inkscape:document-units="mm"
     inkscape:zoom="1.5080481"
     inkscape:cx="302.37762"
     inkscape:cy="81.89394"
     inkscape:window-width="2490"
     inkscape:window-height="1376"
     inkscape:window-x="70"
     inkscape:window-y="27"
     inkscape:window-maximized="1"
     inkscape:current-layer="layer1" />
  <defs
     id="defs1">
    <marker
       style="overflow:visible"
       id="Triangle"
       refX="0"
       refY="0"
       orient="auto-start-reverse"
       inkscape:stockid="Triangle arrow"
       markerWidth="1"
       markerHeight="1"
       viewBox="0 0 1 1"
       inkscape:isstock="true"
       inkscape:collect="always"
       preserveAspectRatio="xMidYMid">
      <path
         transform="scale(0.5)"
         style="fill:context-stroke;fill-rule:evenodd;stroke:context-stroke;stroke-width:1pt"
         d="M 5.77,0 -2.88,5 V -5 Z"
         id="path135" />
    </marker>
    <marker
       style="overflow:visible"
       id="Triangle-7"
       refX="0"
       refY="0"
       orient="auto-start-reverse"
       inkscape:stockid="Triangle arrow"
       markerWidth="1"
       markerHeight="1"
       viewBox="0 0 1 1"
       inkscape:isstock="true"
       inkscape:collect="always"
       preserveAspectRatio="xMidYMid">
      <path
         transform="scale(0.5)"
         style="fill:context-stroke;fill-rule:evenodd;stroke:context-stroke;stroke-width:1pt"
         d="M 5.77,0 -2.88,5 V -5 Z"
         id="path135-5" />
    </marker>
  </defs>
  <g
     inkscape:label="Calque 1"
     inkscape:groupmode="layer"
     id="layer1"
     transform="translate(-16.58088,-14.052031)">
    <path
       style="fill:none;stroke:#000000;stroke-width:0.264583px;stroke-linecap:butt;stroke-linejoin:miter;stroke-opacity:1;marker-start:url(#Triangle)"
       d="M 99.525986,75.314285 H 28.154069"
       id="path2" />
    <path
       style="fill:none;stroke:#000000;stroke-width:0.264583px;stroke-linecap:butt;stroke-linejoin:miter;stroke-opacity:1;marker-start:url(#Triangle-7)"
       d="M 32.501102,16.569362 V 80.477641"
       id="path2-5"
       sodipodi:nodetypes="cc" />
    <g
       inkscape:label=""
       transform="translate(16.58088,33.215113)"
       id="g15">
      <g
         id="g14"
         transform="matrix(0.352778,0,0,0.352778,-0.84089,-0.714463)">
        <g
           style="fill:#000000;fill-opacity:1"
           id="g4">
          <g
             id="g3"
             transform="translate(1.993,8.1190004)">
            <path
               style="stroke:none"
               d="m 2.796875,-2.921875 h 0.875 c 0.640625,0 0.765625,0.109375 0.765625,0.40625 0,0.015625 -0.015625,0.1875 -0.0625,0.40625 -0.046875,0.09375 -0.046875,0.109375 -0.046875,0.125 0,0.03125 0.03125,0.125 0.125,0.125 0.109375,0 0.109375,-0.046875 0.140625,-0.1875 l 0.5,-1.9375 C 5.109375,-4.03125 5.125,-4.078125 5.125,-4.125 5.125,-4.171875 5.078125,-4.25 5,-4.25 4.890625,-4.25 4.875,-4.171875 4.84375,-4.03125 4.65625,-3.328125 4.40625,-3.1875 3.6875,-3.1875 H 2.859375 c 0.125,-0.5 0.578125,-2.34375 0.609375,-2.453125 0.0625,-0.1875 0.15625,-0.1875 0.4375,-0.1875 h 1.234375 c 1.125,0 1.328125,0.296875 1.328125,1 0,0.296875 -0.046875,0.546875 -0.046875,0.609375 0,0.078125 0.046875,0.140625 0.125,0.140625 0.109375,0 0.109375,-0.0625 0.140625,-0.234375 L 6.875,-5.96875 c 0,-0.125 -0.09375,-0.125 -0.265625,-0.125 h -4.5 c -0.171875,0 -0.265625,0 -0.265625,0.15625 0,0.109375 0.09375,0.109375 0.28125,0.109375 0.03125,0 0.203125,0 0.34375,0.03125 0.1875,0.015625 0.203125,0.0625 0.203125,0.140625 0,0.03125 0,0.046875 -0.046875,0.203125 L 1.4375,-0.6875 c -0.078125,0.328125 -0.09375,0.40625 -0.78125,0.40625 -0.15625,0 -0.265625,0 -0.265625,0.171875 C 0.390625,-0.0625 0.421875,0 0.53125,0 0.625,0 1.046875,-0.015625 1.140625,-0.015625 1.203125,-0.03125 1.53125,-0.03125 1.71875,-0.03125 c 0.171875,0 0.421875,0.015625 0.640625,0.015625 0.21875,0 0.46875,0.015625 0.6875,0.015625 0.0625,0 0.1875,0 0.1875,-0.15625 0,-0.125 -0.09375,-0.125 -0.28125,-0.125 -0.015625,0 -0.25,0 -0.46875,-0.015625 -0.28125,-0.03125 -0.296875,-0.0625 -0.296875,-0.171875 0,-0.015625 0,-0.0625 0.03125,-0.203125 z m 0,0"
               id="path3" />
          </g>
        </g>
        <g
           style="fill:#000000;fill-opacity:1"
           id="g6">
          <g
             id="g5"
             transform="translate(7.8769999,9.1820002)">
            <path
               style="stroke:none"
               d="M 2.578125,-2.34375 H 3.1875 c 0.125,0 0.203125,0 0.203125,-0.140625 0,-0.09375 -0.078125,-0.09375 -0.1875,-0.09375 H 2.625 c 0.171875,-0.984375 0.171875,-1 0.203125,-1.109375 0.03125,-0.125 0.03125,-0.171875 0.125,-0.25 0.078125,-0.046875 0.125,-0.078125 0.21875,-0.078125 0.09375,0 0.1875,0.015625 0.28125,0.046875 -0.125,0.0625 -0.234375,0.1875 -0.234375,0.328125 0,0.125 0.109375,0.234375 0.25,0.234375 0.15625,0 0.34375,-0.140625 0.34375,-0.375 0,-0.328125 -0.375,-0.4375 -0.640625,-0.4375 C 2.90625,-4.21875 2.5,-4.09375 2.3125,-3.484375 2.265625,-3.34375 2.25,-3.21875 2.203125,-3 2.171875,-2.828125 2.171875,-2.75 2.125,-2.578125 H 1.640625 c -0.125,0 -0.203125,0 -0.203125,0.15625 0,0.078125 0.078125,0.078125 0.1875,0.078125 H 2.09375 C 1.859375,-1 1.765625,-0.53125 1.75,-0.4375 1.5625,0.59375 1.53125,0.65625 1.484375,0.765625 c -0.09375,0.140625 -0.1875,0.25 -0.34375,0.25 -0.03125,0 -0.171875,0 -0.265625,-0.046875 C 1,0.921875 1.109375,0.796875 1.109375,0.640625 c 0,-0.125 -0.109375,-0.21875 -0.25,-0.21875 -0.15625,0 -0.34375,0.125 -0.34375,0.359375 0,0.34375 0.375,0.4375 0.625,0.4375 0.328125,0 0.5625,-0.265625 0.671875,-0.40625 C 2.078125,0.46875 2.203125,-0.25 2.203125,-0.296875 Z m 0,0"
               id="path4" />
          </g>
        </g>
        <g
           style="fill:#000000;fill-opacity:1"
           id="g11">
          <g
             id="g8"
             transform="translate(14.698,8.1190004)">
            <path
               style="stroke:none"
               d="m 6.046875,-2.046875 c 0.171875,0 0.34375,0 0.34375,-0.203125 0,-0.1875 -0.1875,-0.1875 -0.34375,-0.1875 h -4.9375 c -0.15625,0 -0.34375,0 -0.34375,0.1875 0,0.203125 0.171875,0.203125 0.34375,0.203125 z m 0,0"
               id="path15" />
          </g>
        </g>
        <g
           style="fill:#000000;fill-opacity:1"
           id="g12">
          <g
             id="use11"
             transform="translate(23.914,8.1190004)">
            <path
               style="stroke:none"
               d="m 2.796875,-2.921875 h 0.875 c 0.640625,0 0.765625,0.109375 0.765625,0.40625 0,0.015625 -0.015625,0.1875 -0.0625,0.40625 -0.046875,0.09375 -0.046875,0.109375 -0.046875,0.125 0,0.03125 0.03125,0.125 0.125,0.125 0.109375,0 0.109375,-0.046875 0.140625,-0.1875 l 0.5,-1.9375 C 5.109375,-4.03125 5.125,-4.078125 5.125,-4.125 5.125,-4.171875 5.078125,-4.25 5,-4.25 4.890625,-4.25 4.875,-4.171875 4.84375,-4.03125 4.65625,-3.328125 4.40625,-3.1875 3.6875,-3.1875 H 2.859375 c 0.125,-0.5 0.578125,-2.34375 0.609375,-2.453125 0.0625,-0.1875 0.15625,-0.1875 0.4375,-0.1875 h 1.234375 c 1.125,0 1.328125,0.296875 1.328125,1 0,0.296875 -0.046875,0.546875 -0.046875,0.609375 0,0.078125 0.046875,0.140625 0.125,0.140625 0.109375,0 0.109375,-0.0625 0.140625,-0.234375 L 6.875,-5.96875 c 0,-0.125 -0.09375,-0.125 -0.265625,-0.125 h -4.5 c -0.171875,0 -0.265625,0 -0.265625,0.15625 0,0.109375 0.09375,0.109375 0.28125,0.109375 0.03125,0 0.203125,0 0.34375,0.03125 0.1875,0.015625 0.203125,0.0625 0.203125,0.140625 0,0.03125 0,0.046875 -0.046875,0.203125 L 1.4375,-0.6875 c -0.078125,0.328125 -0.09375,0.40625 -0.78125,0.40625 -0.15625,0 -0.265625,0 -0.265625,0.171875 C 0.390625,-0.0625 0.421875,0 0.53125,0 0.625,0 1.046875,-0.015625 1.140625,-0.015625 1.203125,-0.03125 1.53125,-0.03125 1.71875,-0.03125 c 0.171875,0 0.421875,0.015625 0.640625,0.015625 0.21875,0 0.46875,0.015625 0.6875,0.015625 0.0625,0 0.1875,0 0.1875,-0.15625 0,-0.125 -0.09375,-0.125 -0.28125,-0.125 -0.015625,0 -0.25,0 -0.46875,-0.015625 -0.28125,-0.03125 -0.296875,-0.0625 -0.296875,-0.171875 0,-0.015625 0,-0.0625 0.03125,-0.203125 z m 0,0"
               id="path16" />
          </g>
        </g>
        <g
           style="fill:#000000;fill-opacity:1"
           id="g13">
          <g
             id="use12"
             transform="translate(29.798,9.1820002)">
            <path
               style="stroke:none"
               d="m 1.609375,-2.34375 h 0.65625 c 0.109375,0 0.203125,0 0.203125,-0.140625 0,-0.09375 -0.078125,-0.09375 -0.1875,-0.09375 H 1.671875 L 1.875,-3.40625 c 0.03125,-0.09375 0.03125,-0.125 0.03125,-0.125 0,-0.15625 -0.109375,-0.203125 -0.21875,-0.203125 -0.0625,0 -0.21875,0.03125 -0.28125,0.234375 L 1.171875,-2.578125 H 0.53125 c -0.125,0 -0.125,0 -0.15625,0.015625 -0.03125,0.03125 -0.046875,0.109375 -0.046875,0.140625 0.015625,0.078125 0.0625,0.078125 0.1875,0.078125 H 1.125 l -0.359375,1.421875 c -0.03125,0.125 -0.078125,0.328125 -0.078125,0.40625 0,0.34375 0.3125,0.578125 0.671875,0.578125 0.6875,0 1.09375,-0.828125 1.09375,-0.921875 0,-0.015625 -0.015625,-0.09375 -0.109375,-0.09375 -0.078125,0 -0.09375,0.03125 -0.125,0.109375 -0.203125,0.453125 -0.546875,0.703125 -0.84375,0.703125 -0.21875,0 -0.21875,-0.21875 -0.21875,-0.296875 0,-0.078125 0,-0.09375 0.03125,-0.203125 z m 0,0"
               id="path17" />
          </g>
          <g
             id="use13"
             transform="translate(32.648121,9.1820002)">
            <path
               style="stroke:none"
               d="M 2,-3.96875 C 2,-4 2.015625,-4.03125 2.015625,-4.0625 c 0,-0.09375 -0.125,-0.09375 -0.203125,-0.078125 L 1.15625,-4.09375 c -0.109375,0 -0.1875,0.015625 -0.1875,0.15625 0,0.09375 0.078125,0.09375 0.171875,0.09375 0.171875,0 0.21875,0 0.296875,0.03125 0,0.078125 0,0.09375 -0.03125,0.1875 l -0.828125,3.34375 c -0.03125,0.09375 -0.03125,0.125 -0.03125,0.140625 C 0.546875,0 0.671875,0.0625 0.765625,0.0625 0.8125,0.0625 0.921875,0.03125 1,-0.078125 1.015625,-0.125 1.078125,-0.3125 1.109375,-0.4375 c 0.03125,-0.125 0.09375,-0.390625 0.125,-0.546875 C 1.28125,-1.140625 1.3125,-1.25 1.34375,-1.375 1.359375,-1.46875 1.390625,-1.578125 1.5625,-1.828125 1.765625,-2.109375 2.078125,-2.4375 2.53125,-2.4375 c 0.375,0 0.375,0.3125 0.375,0.421875 0,0.34375 -0.25,0.984375 -0.359375,1.25 C 2.5,-0.65625 2.46875,-0.5625 2.46875,-0.453125 c 0,0.296875 0.265625,0.515625 0.59375,0.515625 0.609375,0 0.90625,-0.796875 0.90625,-0.921875 0,-0.015625 0,-0.09375 -0.109375,-0.09375 -0.078125,0 -0.09375,0.03125 -0.125,0.15625 -0.09375,0.3125 -0.34375,0.65625 -0.640625,0.65625 -0.125,0 -0.171875,-0.09375 -0.171875,-0.21875 0,-0.109375 0.046875,-0.21875 0.09375,-0.34375 C 3.109375,-0.9375 3.375,-1.609375 3.375,-1.9375 c 0,-0.484375 -0.328125,-0.703125 -0.8125,-0.703125 -0.484375,0 -0.796875,0.265625 -1.03125,0.53125 z m 0,0"
               id="path18" />
          </g>
        </g>
      </g>
    </g>
    <path
       sodipodi:type="star"
       style="fill:none;fill-rule:evenodd;stroke:#000000;stroke-width:0.600001;stroke-linejoin:round;stroke-miterlimit:0"
       id="path19"
       inkscape:flatsided="false"
       sodipodi:sides="4"
       sodipodi:cx="53.630829"
       sodipodi:cy="42.300537"
       sodipodi:r1="3.6591139"
       sodipodi:r2="0.036591139"
       sodipodi:arg1="1.3089969"
       sodipodi:arg2="2.0943951"
       inkscape:rounded="0"
       inkscape:randomized="0"
       d="m 54.577877,45.83497 -0.965344,-3.502744 -3.516137,0.91536 3.502744,-0.965344 -0.91536,-3.516137 0.965344,3.502743 3.516137,-0.915359 -3.502743,0.965344 z"
       inkscape:transform-center-x="-0.39414838"
       inkscape:transform-center-y="0.48488455"
       transform="matrix(0.43455695,0.11328954,-0.11328954,0.43455695,20.842461,41.760863)" />
    <path
       sodipodi:type="star"
       style="fill:none;fill-rule:evenodd;stroke:#000000;stroke-width:0.600001;stroke-linejoin:round;stroke-miterlimit:0"
       id="path19-0"
       inkscape:flatsided="false"
       sodipodi:sides="4"
       sodipodi:cx="53.630829"
       sodipodi:cy="42.300537"
       sodipodi:r1="3.6591139"
       sodipodi:r2="0.036591139"
       sodipodi:arg1="1.3089969"
       sodipodi:arg2="2.0943951"
       inkscape:rounded="0"
       inkscape:randomized="0"
       d="m 54.577877,45.83497 -0.965344,-3.502744 -3.516137,0.91536 3.502744,-0.965344 -0.91536,-3.516137 0.965344,3.502743 3.516137,-0.915359 -3.502743,0.965344 z"
       inkscape:transform-center-x="0.054532776"
       inkscape:transform-center-y="0.62248845"
       transform="matrix(0.23313815,0.383824,-0.383824,0.23313815,43.088471,27.585925)" />
    <path
       sodipodi:type="star"
       style="fill:none;fill-rule:evenodd;stroke:#000000;stroke-width:0.600001;stroke-linejoin:round;stroke-miterlimit:0"
       id="path19-0-8"
       inkscape:flatsided="false"
       sodipodi:sides="4"
       sodipodi:cx="53.630829"
       sodipodi:cy="42.300537"
       sodipodi:r1="3.6591139"
       sodipodi:r2="0.036591139"
       sodipodi:arg1="1.3089969"
       sodipodi:arg2="2.0943951"
       inkscape:rounded="0"
       inkscape:randomized="0"
       d="m 54.577877,45.83497 -0.965344,-3.502744 -3.516137,0.91536 3.502744,-0.965344 -0.91536,-3.516137 0.965344,3.502743 3.516137,-0.915359 -3.502743,0.965344 z"
       inkscape:transform-center-x="0.054532776"
       inkscape:transform-center-y="0.62248845"
       transform="matrix(0.23313815,0.383824,-0.383824,0.23313815,55.061552,31.933164)" />
    <path
       sodipodi:type="star"
       style="fill:none;fill-rule:evenodd;stroke:#000000;stroke-width:0.600001;stroke-linejoin:round;stroke-miterlimit:0"
       id="path19-0-6"
       inkscape:flatsided="false"
       sodipodi:sides="4"
       sodipodi:cx="53.630829"
       sodipodi:cy="42.300537"
       sodipodi:r1="3.6591139"
       sodipodi:r2="0.036591139"
       sodipodi:arg1="1.3089969"
       sodipodi:arg2="2.0943951"
       inkscape:rounded="0"
       inkscape:randomized="0"
       d="m 54.577877,45.83497 -0.965344,-3.502744 -3.516137,0.91536 3.502744,-0.965344 -0.91536,-3.516137 0.965344,3.502743 3.516137,-0.915359 -3.502743,0.965344 z"
       inkscape:transform-center-x="0.054532776"
       inkscape:transform-center-y="0.62248845"
       transform="matrix(0.23313815,0.383824,-0.383824,0.23313815,67.034632,32.81252)" />
    <path
       sodipodi:type="star"
       style="fill:none;fill-rule:evenodd;stroke:#000000;stroke-width:0.600001;stroke-linejoin:round;stroke-miterlimit:0"
       id="path19-0-3"
       inkscape:flatsided="false"
       sodipodi:sides="4"
       sodipodi:cx="53.630829"
       sodipodi:cy="42.300537"
       sodipodi:r1="3.6591139"
       sodipodi:r2="0.036591139"
       sodipodi:arg1="1.3089969"
       sodipodi:arg2="2.0943951"
       inkscape:rounded="0"
       inkscape:randomized="0"
       d="m 54.577877,45.83497 -0.965344,-3.502744 -3.516137,0.91536 3.502744,-0.965344 -0.91536,-3.516137 0.965344,3.502743 3.516137,-0.915359 -3.502743,0.965344 z"
       inkscape:transform-center-x="0.054532776"
       inkscape:transform-center-y="0.62248845"
       transform="matrix(0.23313815,0.383824,-0.383824,0.23313815,79.007713,32.81252)" />
    <path
       sodipodi:type="star"
       style="fill:none;fill-rule:evenodd;stroke:#000000;stroke-width:0.600001;stroke-linejoin:round;stroke-miterlimit:0"
       id="path19-0-7"
       inkscape:flatsided="false"
       sodipodi:sides="4"
       sodipodi:cx="53.630829"
       sodipodi:cy="42.300537"
       sodipodi:r1="3.6591139"
       sodipodi:r2="0.036591139"
       sodipodi:arg1="1.3089969"
       sodipodi:arg2="2.0943951"
       inkscape:rounded="0"
       inkscape:randomized="0"
       d="m 54.577877,45.83497 -0.965344,-3.502744 -3.516137,0.91536 3.502744,-0.965344 -0.91536,-3.516137 0.965344,3.502743 3.516137,-0.915359 -3.502743,0.965344 z"
       inkscape:transform-center-x="0.054532776"
       inkscape:transform-center-y="0.62248845"
       transform="matrix(0.23313815,0.383824,-0.383824,0.23313815,90.980793,32.81252)" />
    <path
       sodipodi:type="star"
       style="fill:none;fill-rule:evenodd;stroke:#000000;stroke-width:0.600001;stroke-linejoin:round;stroke-miterlimit:0"
       id="path19-1"
       inkscape:flatsided="false"
       sodipodi:sides="4"
       sodipodi:cx="53.630829"
       sodipodi:cy="42.300537"
       sodipodi:r1="3.6591139"
       sodipodi:r2="0.036591139"
       sodipodi:arg1="1.3089969"
       sodipodi:arg2="2.0943951"
       inkscape:rounded="0"
       inkscape:randomized="0"
       d="m 54.577877,45.83497 -0.965344,-3.502744 -3.516137,0.91536 3.502744,-0.965344 -0.91536,-3.516137 0.965344,3.502743 3.516137,-0.915359 -3.502743,0.965344 z"
       inkscape:transform-center-x="-0.39414838"
       inkscape:transform-center-y="0.48488455"
       transform="matrix(0.43455695,0.11328954,-0.11328954,0.43455695,32.790113,41.760863)" />
    <path
       sodipodi:type="star"
       style="fill:none;fill-rule:evenodd;stroke:#000000;stroke-width:0.600001;stroke-linejoin:round;stroke-miterlimit:0"
       id="path19-9"
       inkscape:flatsided="false"
       sodipodi:sides="4"
       sodipodi:cx="53.630829"
       sodipodi:cy="42.300537"
       sodipodi:r1="3.6591139"
       sodipodi:r2="0.036591139"
       sodipodi:arg1="1.3089969"
       sodipodi:arg2="2.0943951"
       inkscape:rounded="0"
       inkscape:randomized="0"
       d="m 54.577877,45.83497 -0.965344,-3.502744 -3.516137,0.91536 3.502744,-0.965344 -0.91536,-3.516137 0.965344,3.502743 3.516137,-0.915359 -3.502743,0.965344 z"
       inkscape:transform-center-x="-0.39414838"
       inkscape:transform-center-y="0.48488455"
       transform="matrix(0.43455695,0.11328954,-0.11328954,0.43455695,44.771669,41.760863)" />
    <path
       sodipodi:type="star"
       style="fill:none;fill-rule:evenodd;stroke:#000000;stroke-width:0.600001;stroke-linejoin:round;stroke-miterlimit:0"
       id="path19-6"
       inkscape:flatsided="false"
       sodipodi:sides="4"
       sodipodi:cx="53.630829"
       sodipodi:cy="42.300537"
       sodipodi:r1="3.6591139"
       sodipodi:r2="0.036591139"
       sodipodi:arg1="1.3089969"
       sodipodi:arg2="2.0943951"
       inkscape:rounded="0"
       inkscape:randomized="0"
       d="m 54.577877,45.83497 -0.965344,-3.502744 -3.516137,0.91536 3.502744,-0.965344 -0.91536,-3.516137 0.965344,3.502743 3.516137,-0.915359 -3.502743,0.965344 z"
       inkscape:transform-center-x="-0.39414838"
       inkscape:transform-center-y="0.48488455"
       transform="matrix(0.43455695,0.11328954,-0.11328954,0.43455695,56.753226,41.760863)" />
    <path
       sodipodi:type="star"
       style="fill:none;fill-rule:evenodd;stroke:#000000;stroke-width:0.600001;stroke-linejoin:round;stroke-miterlimit:0"
       id="path19-8"
       inkscape:flatsided="false"
       sodipodi:sides="4"
       sodipodi:cx="53.630829"
       sodipodi:cy="42.300537"
       sodipodi:r1="3.6591139"
       sodipodi:r2="0.036591139"
       sodipodi:arg1="1.3089969"
       sodipodi:arg2="2.0943951"
       inkscape:rounded="0"
       inkscape:randomized="0"
       d="m 54.577877,45.83497 -0.965344,-3.502744 -3.516137,0.91536 3.502744,-0.965344 -0.91536,-3.516137 0.965344,3.502743 3.516137,-0.915359 -3.502743,0.965344 z"
       inkscape:transform-center-x="-0.39414838"
       inkscape:transform-center-y="0.48488455"
       transform="matrix(0.43455695,0.11328954,-0.11328954,0.43455695,68.734783,41.760863)" />
    <path
       sodipodi:type="star"
       style="fill:none;fill-rule:evenodd;stroke:#000000;stroke-width:0.600001;stroke-linejoin:round;stroke-miterlimit:0"
       id="path20"
       inkscape:flatsided="true"
       sodipodi:sides="3"
       sodipodi:cx="37.754128"
       sodipodi:cy="41.75626"
       sodipodi:r1="1.7331021"
       sodipodi:r2="0.86655104"
       sodipodi:arg1="0.54997569"
       sodipodi:arg2="1.5971732"
       inkscape:rounded="0"
       inkscape:randomized="0"
       d="m 39.231662,42.662094 -3.000777,-0.07917 1.568951,-2.559164 z"
       inkscape:transform-center-x="0.022854768"
       inkscape:transform-center-y="-0.41333295"
       transform="translate(1.6246279,4.3621768)" />
    <path
       sodipodi:type="star"
       style="fill:none;fill-rule:evenodd;stroke:#000000;stroke-width:0.600001;stroke-linejoin:round;stroke-miterlimit:0"
       id="path20-0"
       inkscape:flatsided="true"
       sodipodi:sides="3"
       sodipodi:cx="37.754128"
       sodipodi:cy="41.75626"
       sodipodi:r1="1.7331021"
       sodipodi:r2="0.86655104"
       sodipodi:arg1="0.54997569"
       sodipodi:arg2="1.5971732"
       inkscape:rounded="0"
       inkscape:randomized="0"
       d="m 39.231662,42.662094 -3.000777,-0.07917 1.568951,-2.559164 z"
       inkscape:transform-center-x="0.022854768"
       inkscape:transform-center-y="-0.41333295"
       transform="translate(13.597708,10.557049)" />
    <path
       sodipodi:type="star"
       style="fill:none;fill-rule:evenodd;stroke:#000000;stroke-width:0.600001;stroke-linejoin:round;stroke-miterlimit:0"
       id="path20-06"
       inkscape:flatsided="true"
       sodipodi:sides="3"
       sodipodi:cx="37.754128"
       sodipodi:cy="41.75626"
       sodipodi:r1="1.7331021"
       sodipodi:r2="0.86655104"
       sodipodi:arg1="0.54997569"
       sodipodi:arg2="1.5971732"
       inkscape:rounded="0"
       inkscape:randomized="0"
       d="m 39.231662,42.662094 -3.000777,-0.07917 1.568951,-2.559164 z"
       inkscape:transform-center-x="0.022854768"
       inkscape:transform-center-y="-0.41333295"
       transform="translate(25.570789,13.526497)" />
    <path
       sodipodi:type="star"
       style="fill:none;fill-rule:evenodd;stroke:#000000;stroke-width:0.600001;stroke-linejoin:round;stroke-miterlimit:0"
       id="path20-6"
       inkscape:flatsided="true"
       sodipodi:sides="3"
       sodipodi:cx="37.754128"
       sodipodi:cy="41.75626"
       sodipodi:r1="1.7331021"
       sodipodi:r2="0.86655104"
       sodipodi:arg1="0.54997569"
       sodipodi:arg2="1.5971732"
       inkscape:rounded="0"
       inkscape:randomized="0"
       d="m 39.231662,42.662094 -3.000777,-0.07917 1.568951,-2.559164 z"
       inkscape:transform-center-x="0.022854768"
       inkscape:transform-center-y="-0.41333295"
       transform="translate(37.543869,16.587731)" />
    <path
       sodipodi:type="star"
       style="fill:none;fill-rule:evenodd;stroke:#000000;stroke-width:0.600001;stroke-linejoin:round;stroke-miterlimit:0"
       id="path20-4"
       inkscape:flatsided="true"
       sodipodi:sides="3"
       sodipodi:cx="37.754128"
       sodipodi:cy="41.75626"
       sodipodi:r1="1.7331021"
       sodipodi:r2="0.86655104"
       sodipodi:arg1="0.54997569"
       sodipodi:arg2="1.5971732"
       inkscape:rounded="0"
       inkscape:randomized="0"
       d="m 39.231662,42.662094 -3.000777,-0.07917 1.568951,-2.559164 z"
       inkscape:transform-center-x="0.022854768"
       inkscape:transform-center-y="-0.41333295"
       transform="translate(49.51695,16.587731)" />
    <circle
       style="fill:none;fill-rule:evenodd;stroke:#000000;stroke-width:0.600001;stroke-linejoin:round;stroke-miterlimit:0"
       id="path21"
       cx="39.513477"
       cy="26.125938"
       r="1.6819899" />
    <circle
       style="fill:none;fill-rule:evenodd;stroke:#000000;stroke-width:0.600001;stroke-linejoin:round;stroke-miterlimit:0"
       id="path21-6"
       cx="49.652294"
       cy="34.211117"
       r="1.6819899" />
    <circle
       style="fill:none;fill-rule:evenodd;stroke:#000000;stroke-width:0.600001;stroke-linejoin:round;stroke-miterlimit:0"
       id="path21-4"
       cx="62.336411"
       cy="41.13826"
       r="1.6819899" />
    <circle
       style="fill:none;fill-rule:evenodd;stroke:#000000;stroke-width:0.600001;stroke-linejoin:round;stroke-miterlimit:0"
       id="path21-47"
       cx="74.956825"
       cy="47.319447"
       r="1.6819899" />
    <circle
       style="fill:none;fill-rule:evenodd;stroke:#000000;stroke-width:0.600001;stroke-linejoin:round;stroke-miterlimit:0"
       id="path21-0"
       cx="86.478416"
       cy="51.260983"
       r="1.6819899" />
    <path
       sodipodi:type="star"
       style="fill:none;fill-rule:evenodd;stroke:#000000;stroke-width:0.600001;stroke-linejoin:round;stroke-miterlimit:0"
       id="path19-0-7-8"
       inkscape:flatsided="false"
       sodipodi:sides="4"
       sodipodi:cx="53.630829"
       sodipodi:cy="42.300537"
       sodipodi:r1="3.6591139"
       sodipodi:r2="0.036591139"
       sodipodi:arg1="1.3089969"
       sodipodi:arg2="2.0943951"
       inkscape:rounded="0"
       inkscape:randomized="0"
       d="m 54.577877,45.83497 -0.965344,-3.502744 -3.516137,0.91536 3.502744,-0.965344 -0.91536,-3.516137 0.965344,3.502743 3.516137,-0.915359 -3.502743,0.965344 z"
       inkscape:transform-center-x="0.054532776"
       inkscape:transform-center-y="0.62248845"
       transform="matrix(0.23313815,0.383824,-0.383824,0.23313815,86.232867,-4.4408561)" />
    <path
       sodipodi:type="star"
       style="fill:none;fill-rule:evenodd;stroke:#000000;stroke-width:0.600001;stroke-linejoin:round;stroke-miterlimit:0"
       id="path19-8-8"
       inkscape:flatsided="false"
       sodipodi:sides="4"
       sodipodi:cx="53.630829"
       sodipodi:cy="42.300537"
       sodipodi:r1="3.6591139"
       sodipodi:r2="0.036591139"
       sodipodi:arg1="1.3089969"
       sodipodi:arg2="2.0943951"
       inkscape:rounded="0"
       inkscape:randomized="0"
       d="m 54.577877,45.83497 -0.965344,-3.502744 -3.516137,0.91536 3.502744,-0.965344 -0.91536,-3.516137 0.965344,3.502743 3.516137,-0.915359 -3.502743,0.965344 z"
       inkscape:transform-center-x="-0.39414838"
       inkscape:transform-center-y="0.48488455"
       transform="matrix(0.43455695,0.11328954,-0.11328954,0.43455695,63.986853,6.5339028)" />
    <path
       sodipodi:type="star"
       style="fill:none;fill-rule:evenodd;stroke:#000000;stroke-width:0.600001;stroke-linejoin:round;stroke-miterlimit:0"
       id="path20-4-4"
       inkscape:flatsided="true"
       sodipodi:sides="3"
       sodipodi:cx="37.754128"
       sodipodi:cy="41.75626"
       sodipodi:r1="1.7331021"
       sodipodi:r2="0.86655104"
       sodipodi:arg1="0.54997569"
       sodipodi:arg2="1.5971732"
       inkscape:rounded="0"
       inkscape:randomized="0"
       d="m 39.231662,42.662094 -3.000777,-0.07917 1.568951,-2.559164 z"
       inkscape:transform-center-x="0.022854768"
       inkscape:transform-center-y="-0.41333295"
       transform="translate(44.76902,-20.323024)" />
    <circle
       style="fill:none;fill-rule:evenodd;stroke:#000000;stroke-width:0.600001;stroke-linejoin:round;stroke-miterlimit:0"
       id="path21-0-3"
       cx="82.50029"
       cy="16.034021"
       r="1.6819899" />
    <text
       xml:space="preserve"
       style="font-size:3.175px;line-height:1.25;font-family:sans-serif;-inkscape-font-specification:sans-serif;letter-spacing:0px;word-spacing:0px;stroke-width:0.264583"
       x="88.899101"
       y="32.004776"
       id="text21"><tspan
         sodipodi:role="line"
         id="tspan21"
         style="stroke-width:0.264583"
         x="88.899101"
         y="32.004776">N = 2</tspan></text>
    <text
       xml:space="preserve"
       style="font-size:3.175px;line-height:1.25;font-family:sans-serif;-inkscape-font-specification:sans-serif;letter-spacing:0px;word-spacing:0px;stroke-width:0.264583"
       x="88.899101"
       y="26.910967"
       id="text22"><tspan
         sodipodi:role="line"
         id="tspan22"
         style="stroke-width:0.264583"
         x="88.899101"
         y="26.910967">N=5</tspan></text>
    <text
       xml:space="preserve"
       style="font-size:3.175px;line-height:1.25;font-family:sans-serif;-inkscape-font-specification:sans-serif;letter-spacing:0px;word-spacing:0px;stroke-width:0.264583"
       x="88.899101"
       y="21.881496"
       id="text23"><tspan
         sodipodi:role="line"
         id="tspan23"
         style="stroke-width:0.264583"
         x="88.899101"
         y="21.881496">N=10</tspan></text>
    <text
       xml:space="preserve"
       style="font-size:3.175px;line-height:1.25;font-family:sans-serif;-inkscape-font-specification:sans-serif;letter-spacing:0px;word-spacing:0px;stroke-width:0.264583"
       x="88.899101"
       y="16.831099"
       id="text24"><tspan
         sodipodi:role="line"
         id="tspan24"
         style="stroke-width:0.264583"
         x="88.899101"
         y="16.831099">N=20</tspan></text>
    <text
       xml:space="preserve"
       style="font-size:3.175px;line-height:1.25;font-family:sans-serif;-inkscape-font-specification:sans-serif;letter-spacing:0px;word-spacing:0px;stroke-width:0.264583"
       x="39.261539"
       y="79.573555"
       id="text34"><tspan
         sodipodi:role="line"
         id="tspan34"
         style="stroke-width:0.264583"
         x="39.261539"
         y="79.573555" /></text>
    <g
       inkscape:label=""
       transform="translate(59.22807,83.084656)"
       id="g42">
      <g
         id="surface1"
         transform="matrix(0.352778,0,0,0.352778,-0.84089,-0.699426)">
        <g
           style="fill:#000000;fill-opacity:1"
           id="g10">
          <g
             id="use8"
             transform="translate(1.993,8.717)">
            <path
               style="stroke:none"
               d="M 3.421875,-5.421875 C 3.5,-5.765625 3.53125,-5.84375 4.359375,-5.84375 c 0.25,0 0.328125,0 0.328125,-0.171875 C 4.6875,-6.125 4.578125,-6.125 4.546875,-6.125 c -0.203125,0 -0.4375,0.015625 -0.65625,0.015625 -0.21875,0 -0.421875,0.015625 -0.640625,0.015625 -0.203125,0 -0.421875,0 -0.625,-0.015625 -0.15625,0 -0.4375,-0.015625 -0.59375,-0.015625 -0.046875,0 -0.171875,0 -0.171875,0.15625 0,0.125 0.078125,0.125 0.265625,0.125 0.03125,0 0.203125,0 0.34375,0.015625 0.15625,0.015625 0.21875,0.03125 0.21875,0.140625 0,0.03125 -0.015625,0.078125 -0.046875,0.171875 L 1.4375,-0.6875 c -0.078125,0.328125 -0.09375,0.40625 -0.78125,0.40625 -0.15625,0 -0.265625,0 -0.265625,0.171875 C 0.390625,0 0.484375,0 0.640625,0 H 4.875 c 0.21875,0 0.234375,-0.015625 0.296875,-0.203125 0.09375,-0.21875 0.734375,-1.921875 0.734375,-2 0,-0.0625 -0.0625,-0.109375 -0.125,-0.109375 -0.09375,0 -0.09375,0.03125 -0.171875,0.21875 -0.296875,0.796875 -0.6875,1.8125 -2.265625,1.8125 H 2.453125 c -0.125,0 -0.140625,0 -0.171875,0 -0.09375,-0.015625 -0.125,-0.03125 -0.125,-0.09375 0,-0.015625 0,-0.03125 0.046875,-0.203125 z m 0,0"
               id="path14" />
          </g>
          <g
             id="use9"
             transform="translate(8.2641001,8.717)">
            <path
               style="stroke:none"
               d="m 4.03125,-6.375 c 0.0625,-0.125 0.0625,-0.140625 0.0625,-0.15625 0,-0.109375 -0.09375,-0.203125 -0.1875,-0.203125 -0.125,0 -0.171875,0.078125 -0.171875,0.09375 L 0.5625,1.890625 c -0.046875,0.125 -0.046875,0.140625 -0.046875,0.15625 0,0.109375 0.078125,0.203125 0.1875,0.203125 0.09375,0 0.15625,-0.046875 0.21875,-0.21875 z m 0,0"
               id="path34" />
          </g>
          <g
             id="use10"
             transform="translate(12.871933,8.717)">
            <path
               style="stroke:none"
               d="m 2.578125,-5.921875 c 0.03125,-0.125 0.03125,-0.140625 0.03125,-0.171875 0,-0.078125 -0.046875,-0.125 -0.140625,-0.125 -0.125,0 -0.90625,0.0625 -1.09375,0.078125 -0.078125,0.015625 -0.1875,0.03125 -0.1875,0.171875 0,0.125 0.109375,0.125 0.25,0.125 0.421875,0 0.421875,0.0625 0.421875,0.140625 0,0.03125 0,0.046875 -0.046875,0.21875 l -1.28125,5.15625 C 0.5,-0.203125 0.5,-0.1875 0.5,-0.15625 c 0,0.140625 0.109375,0.25 0.265625,0.25 0.296875,0 0.359375,-0.25 0.40625,-0.4375 l 0.421875,-1.6875 c 0.609375,0.046875 1.0625,0.296875 1.0625,0.734375 0,0.0625 0,0.09375 -0.015625,0.234375 -0.015625,0.03125 -0.046875,0.15625 -0.046875,0.25 0,0.53125 0.375,0.90625 0.875,0.90625 0.328125,0 0.546875,-0.203125 0.703125,-0.46875 0.234375,-0.328125 0.359375,-0.875 0.359375,-0.90625 0,-0.046875 -0.03125,-0.109375 -0.125,-0.109375 -0.09375,0 -0.109375,0.046875 -0.15625,0.203125 -0.109375,0.46875 -0.34375,1.0625 -0.765625,1.0625 -0.25,0 -0.28125,-0.234375 -0.28125,-0.4375 0,-0.21875 0.046875,-0.453125 0.0625,-0.46875 0.015625,-0.046875 0.03125,-0.15625 0.03125,-0.265625 0,-0.625 -0.65625,-0.875 -1.34375,-0.953125 0.265625,-0.171875 0.46875,-0.359375 0.75,-0.640625 0.46875,-0.46875 0.84375,-0.84375 1.3125,-0.84375 0.109375,0 0.234375,0.015625 0.296875,0.109375 -0.40625,0.03125 -0.5,0.359375 -0.5,0.484375 0,0.171875 0.125,0.328125 0.34375,0.328125 0.21875,0 0.5,-0.171875 0.5,-0.5625 0,-0.296875 -0.21875,-0.59375 -0.640625,-0.59375 -0.546875,0 -0.984375,0.4375 -1.359375,0.828125 C 2.21875,-2.71875 2.015625,-2.5 1.671875,-2.359375 Z m 0,0"
               id="path35" />
          </g>
        </g>
        <g
           style="fill:#000000;fill-opacity:1"
           id="g39">
          <g
             id="g36"
             transform="translate(17.669001,9.7799997)">
            <path
               style="stroke:none"
               d="m 3.625,-3.96875 c 0,-0.03125 0.015625,-0.0625 0.015625,-0.09375 0,-0.09375 -0.125,-0.09375 -0.1875,-0.078125 L 2.78125,-4.09375 c -0.109375,0 -0.1875,0.015625 -0.1875,0.15625 0,0.09375 0.078125,0.09375 0.171875,0.09375 0.171875,0 0.21875,0 0.296875,0.03125 0,0.09375 0,0.109375 -0.015625,0.1875 -0.125,0.515625 -0.234375,0.921875 -0.34375,1.34375 -0.09375,-0.140625 -0.296875,-0.359375 -0.65625,-0.359375 -0.765625,0 -1.59375,0.796875 -1.59375,1.6875 0,0.640625 0.453125,1.015625 0.953125,1.015625 0.40625,0 0.75,-0.28125 0.890625,-0.421875 0.125,0.375 0.515625,0.421875 0.65625,0.421875 0.21875,0 0.375,-0.125 0.484375,-0.3125 0.140625,-0.234375 0.234375,-0.578125 0.234375,-0.609375 0,-0.015625 -0.015625,-0.09375 -0.125,-0.09375 -0.078125,0 -0.09375,0.046875 -0.125,0.140625 -0.09375,0.375 -0.21875,0.671875 -0.453125,0.671875 -0.203125,0 -0.21875,-0.21875 -0.21875,-0.296875 0,-0.078125 0,-0.09375 0.03125,-0.203125 z m -1.296875,3.1875 c -0.03125,0.109375 -0.03125,0.109375 -0.109375,0.203125 -0.328125,0.375 -0.640625,0.4375 -0.78125,0.4375 -0.25,0 -0.484375,-0.15625 -0.484375,-0.578125 0,-0.25 0.125,-0.84375 0.328125,-1.171875 C 1.453125,-2.21875 1.765625,-2.4375 2.046875,-2.4375 c 0.453125,0 0.5625,0.46875 0.5625,0.515625 L 2.59375,-1.84375 Z m 0,0"
               id="path36" />
          </g>
          <g
             id="g37"
             transform="translate(21.509607,9.7799997)">
            <path
               style="stroke:none"
               d="M 2.078125,-3.734375 C 2.078125,-3.875 1.96875,-3.96875 1.84375,-3.96875 1.671875,-3.96875 1.5,-3.8125 1.5,-3.640625 1.5,-3.5 1.609375,-3.40625 1.734375,-3.40625 c 0.203125,0 0.34375,-0.171875 0.34375,-0.328125 z M 1.71875,-1.640625 C 1.75,-1.703125 1.796875,-1.84375 1.828125,-1.90625 1.84375,-1.953125 1.859375,-2.015625 1.859375,-2.125 c 0,-0.328125 -0.296875,-0.515625 -0.59375,-0.515625 -0.609375,0 -0.90625,0.796875 -0.90625,0.921875 0,0.03125 0.03125,0.078125 0.109375,0.078125 0.09375,0 0.109375,-0.03125 0.125,-0.078125 C 0.765625,-2.296875 1.078125,-2.4375 1.25,-2.4375 c 0.109375,0 0.15625,0.078125 0.15625,0.21875 0,0.109375 -0.03125,0.203125 -0.046875,0.25 l -0.3125,0.765625 c -0.078125,0.171875 -0.078125,0.1875 -0.15625,0.390625 -0.078125,0.171875 -0.09375,0.25 -0.09375,0.359375 0,0.296875 0.265625,0.515625 0.59375,0.515625 0.609375,0 0.90625,-0.796875 0.90625,-0.921875 0,-0.015625 0,-0.09375 -0.109375,-0.09375 -0.09375,0 -0.09375,0.03125 -0.125,0.15625 C 1.96875,-0.5 1.71875,-0.140625 1.40625,-0.140625 1.296875,-0.140625 1.25,-0.203125 1.25,-0.359375 1.25,-0.46875 1.28125,-0.5625 1.359375,-0.75 Z m 0,0"
               id="path37" />
          </g>
          <g
             id="g38"
             transform="translate(24.173227,9.7799997)">
            <path
               style="stroke:none"
               d="M 2.578125,-2.34375 H 3.1875 c 0.125,0 0.203125,0 0.203125,-0.140625 0,-0.09375 -0.078125,-0.09375 -0.1875,-0.09375 H 2.625 c 0.171875,-0.984375 0.171875,-1 0.203125,-1.109375 0.03125,-0.125 0.03125,-0.171875 0.125,-0.25 0.078125,-0.046875 0.125,-0.078125 0.21875,-0.078125 0.09375,0 0.1875,0.015625 0.28125,0.046875 -0.125,0.0625 -0.234375,0.1875 -0.234375,0.328125 0,0.125 0.109375,0.234375 0.25,0.234375 0.15625,0 0.34375,-0.140625 0.34375,-0.375 0,-0.328125 -0.375,-0.4375 -0.640625,-0.4375 C 2.90625,-4.21875 2.5,-4.09375 2.3125,-3.484375 2.265625,-3.34375 2.25,-3.21875 2.203125,-3 2.171875,-2.828125 2.171875,-2.75 2.125,-2.578125 H 1.640625 c -0.125,0 -0.203125,0 -0.203125,0.15625 0,0.078125 0.078125,0.078125 0.1875,0.078125 H 2.09375 C 1.859375,-1 1.765625,-0.53125 1.75,-0.4375 1.5625,0.59375 1.53125,0.65625 1.484375,0.765625 c -0.09375,0.140625 -0.1875,0.25 -0.34375,0.25 -0.03125,0 -0.171875,0 -0.265625,-0.046875 C 1,0.921875 1.109375,0.796875 1.109375,0.640625 c 0,-0.125 -0.109375,-0.21875 -0.25,-0.21875 -0.15625,0 -0.34375,0.125 -0.34375,0.359375 0,0.34375 0.375,0.4375 0.625,0.4375 0.328125,0 0.5625,-0.265625 0.671875,-0.40625 C 2.078125,0.46875 2.203125,-0.25 2.203125,-0.296875 Z m 0,0"
               id="path38" />
          </g>
        </g>
        <g
           style="fill:#000000;fill-opacity:1"
           id="g41">
          <g
             id="g40"
             transform="translate(28.451395,9.7799997)">
            <path
               style="stroke:none"
               d="M 2.578125,-2.34375 H 3.1875 c 0.125,0 0.203125,0 0.203125,-0.140625 0,-0.09375 -0.078125,-0.09375 -0.1875,-0.09375 H 2.625 c 0.171875,-0.984375 0.171875,-1 0.203125,-1.109375 0.03125,-0.125 0.03125,-0.171875 0.125,-0.25 0.078125,-0.046875 0.125,-0.078125 0.21875,-0.078125 0.09375,0 0.1875,0.015625 0.28125,0.046875 -0.125,0.0625 -0.234375,0.1875 -0.234375,0.328125 0,0.125 0.109375,0.234375 0.25,0.234375 0.15625,0 0.34375,-0.140625 0.34375,-0.375 0,-0.328125 -0.375,-0.4375 -0.640625,-0.4375 C 2.90625,-4.21875 2.5,-4.09375 2.3125,-3.484375 2.265625,-3.34375 2.25,-3.21875 2.203125,-3 2.171875,-2.828125 2.171875,-2.75 2.125,-2.578125 H 1.640625 c -0.125,0 -0.203125,0 -0.203125,0.15625 0,0.078125 0.078125,0.078125 0.1875,0.078125 H 2.09375 C 1.859375,-1 1.765625,-0.53125 1.75,-0.4375 1.5625,0.59375 1.53125,0.65625 1.484375,0.765625 c -0.09375,0.140625 -0.1875,0.25 -0.34375,0.25 -0.03125,0 -0.171875,0 -0.265625,-0.046875 C 1,0.921875 1.109375,0.796875 1.109375,0.640625 c 0,-0.125 -0.109375,-0.21875 -0.25,-0.21875 -0.15625,0 -0.34375,0.125 -0.34375,0.359375 0,0.34375 0.375,0.4375 0.625,0.4375 0.328125,0 0.5625,-0.265625 0.671875,-0.40625 C 2.078125,0.46875 2.203125,-0.25 2.203125,-0.296875 Z m 0,0"
               id="path39" />
          </g>
        </g>
      </g>
    </g>
    <text
       xml:space="preserve"
       style="font-size:3.175px;line-height:1.25;font-family:sans-serif;-inkscape-font-specification:sans-serif;letter-spacing:0px;word-spacing:0px;stroke-width:0.264583"
       x="37.22752"
       y="80.59333"
       id="text42"><tspan
         sodipodi:role="line"
         id="tspan42"
         style="stroke-width:0.264583"
         x="37.22752"
         y="80.59333">1</tspan></text>
    <text
       xml:space="preserve"
       style="font-size:3.175px;line-height:1.25;font-family:sans-serif;-inkscape-font-specification:sans-serif;letter-spacing:0px;word-spacing:0px;stroke-width:0.264583"
       x="48.461487"
       y="80.591782"
       id="text43"><tspan
         sodipodi:role="line"
         id="tspan43"
         style="stroke-width:0.264583"
         x="48.461487"
         y="80.591782">10</tspan></text>
    <text
       xml:space="preserve"
       style="font-size:3.175px;line-height:1.25;font-family:sans-serif;-inkscape-font-specification:sans-serif;letter-spacing:0px;word-spacing:0px;stroke-width:0.264583"
       x="61.053547"
       y="80.591782"
       id="text44"><tspan
         sodipodi:role="line"
         id="tspan44"
         style="stroke-width:0.264583"
         x="61.053547"
         y="80.591782">100</tspan></text>
    <text
       xml:space="preserve"
       style="font-size:3.175px;line-height:1.25;font-family:sans-serif;-inkscape-font-specification:sans-serif;letter-spacing:0px;word-spacing:0px;stroke-width:0.264583"
       x="72.227943"
       y="80.591782"
       id="text45"><tspan
         sodipodi:role="line"
         id="tspan45"
         style="stroke-width:0.264583"
         x="72.227943"
         y="80.591782">1000</tspan></text>
    <text
       xml:space="preserve"
       style="font-size:3.175px;line-height:1.25;font-family:sans-serif;-inkscape-font-specification:sans-serif;letter-spacing:0px;word-spacing:0px;stroke-width:0.264583"
       x="85.783226"
       y="80.591782"
       id="text46"><tspan
         sodipodi:role="line"
         id="tspan46"
         style="stroke-width:0.264583"
         x="85.783226"
         y="80.591782">10000</tspan></text>
  </g>
</svg>
